<?xml version="1.0" encoding="UTF-8"?>
<svg id="Layer_1" data-name="Layer 1" xmlns="http://www.w3.org/2000/svg" viewBox="0 0 32 32">
        <path fill="#0093d3" d="M28.4 9.7h-24.8c0 0-0.4 0-0.5-0.3-0.6-1.6-1.9-2.1-1.8-2.5s1-1.2 2.1-2.6c1.6-2.3 1.5-2.3 2.2-2.1 0.8 0.2 2.9 1.2 6.1 0.4s3.5-2.4 4.3-2.4c0.8 0 1.1 1.6 4.3 2.4s5.3-0.1 6.1-0.4c0.7-0.2 0.5-0.2 2.3 2.1 1.1 1.5 2 2.3 2.1 2.6s-1.1 0.9-1.8 2.5c-0.2 0.3-0.6 0.3-0.6 0.3zM3.4 11.7c0-0.3 0.4-0.3 0.4-0.3h24.4c0 0 0.4 0 0.4 0.4 0.2 2.9 3.7 4.5 2.1 10.4-1.4 5.1-9.1 5.3-11 6.4-3.1 1.9-3.1 3.3-3.7 3.3s-0.6-1.4-3.7-3.3c-1.9-1.2-9.6-1.3-11-6.4-1.6-6 2-7.6 2.1-10.5z"></path>
</svg>