<?xml-stylesheet type="text/css" href="../css/main.css" ?>

<!-- Generator: Adobe Illustrator 23.0.4, SVG Export Plug-In . SVG Version: 6.00 Build 0)  -->
<svg onclick="window.open('../projects.html#bfs');" version="1.1" id="Layer_1" xmlns="http://www.w3.org/2000/svg" xmlns:xlink="http://www.w3.org/1999/xlink" x="0px" y="0px"
	 viewBox="0 0 100 100" style="enable-background:new 0 0 100 100;" xml:space="preserve">

<path class="st0" d="M85.7,26.5H74.2V17c0-4.9-4.3-8.9-9.7-8.9h-29c-5.3,0-9.7,4-9.7,8.9v9.5H14.3c-5.3,0-9.7,4-9.7,8.9V83
	c0,4.9,4.3,8.9,9.7,8.9h71.5c5.3,0,9.7-4,9.7-8.9V35.4C95.4,30.5,91.1,26.5,85.7,26.5z M31.3,17c0-2.1,1.9-3.8,4.1-3.8h29
	c2.3,0,4.1,1.7,4.1,3.8v9.5H31.3V17z M89.9,83c0,2.1-1.9,3.8-4.1,3.8H14.3c-2.3,0-4.1-1.7-4.1-3.8V35.4c0-2.1,1.9-3.8,4.1-3.8h71.5
	c2.3,0,4.1,1.7,4.1,3.8V83z"/>
</svg>
