<?xml-stylesheet type="text/css" href="../css/main.css" ?>
<svg onclick="window.open('../projects.html#mvc');" id="Layer_1" height='100px' width='100px' xmlns="http://www.w3.org/2000/svg" data-name="Layer 1" viewBox="0 0 100 100" x="0px" y="0px"><title>Artboard 18</title>
<path  class="st0" d="M46.1,84.82a2.5,2.5,0,1,0,0-5H7.86A1.36,1.36,0,0,1,6.5,78.46V28.91H83.43V42.49a2.5,2.5,0,0,0,5,0V11.35A6.36,6.36,0,0,0,82.07,5H7.86A6.36,6.36,0,0,0,1.5,11.35V78.46a6.36,6.36,0,0,0,6.36,6.36ZM7.86,10H82.07a1.36,1.36,0,0,1,1.36,1.36V23.91H6.5V11.35A1.36,1.36,0,0,1,7.86,10Z"></path>
<path  class="st0" d="M96.86,75.74,74.07,67.37a2.5,2.5,0,0,0-3.21,3.21l8.37,22.79A2.5,2.5,0,0,0,81.4,95h.18a2.5,2.5,0,0,0,2.2-1.32l3.45-6.42,6.17,6.17a2.5,2.5,0,0,0,3.54-3.54l-6.17-6.17,6.42-3.45a2.5,2.5,0,0,0-.32-4.55ZM82,86.42l-4.59-12.5,12.5,4.59-4.48,2.41a2.5,2.5,0,0,0-1,1Z"></path>
<path  class="st0" d="M91.48,55.23,87.31,59.4a2.5,2.5,0,1,0,3.54,3.54L95,58.76a2.5,2.5,0,0,0-3.54-3.54Z"></path>
<path  class="st0" d="M60.49,92.25a2.49,2.49,0,0,0,1.77-.73l4.17-4.17a2.5,2.5,0,0,0-3.54-3.54L58.73,88a2.5,2.5,0,0,0,1.77,4.27Z"></path>
<path  class="st0" d="M66.43,59.4l-4.17-4.17a2.5,2.5,0,0,0-3.54,3.54l4.17,4.17a2.5,2.5,0,0,0,3.54-3.54Z"></path>
<path  class="st0" d="M74.37,50.21v5.89a2.5,2.5,0,1,0,5,0V50.21a2.5,2.5,0,0,0-5,0Z"></path>
<path  class="st0" d="M62.1,73.37a2.5,2.5,0,0,0-2.5-2.5H53.71a2.5,2.5,0,0,0,0,5H59.6A2.5,2.5,0,0,0,62.1,73.37Z"></path>
<path  class="st0" d="M74.34,39.11a2.5,2.5,0,0,0-2.5-2.5H17.06a2.5,2.5,0,0,0-2.5,2.5v30.6a2.5,2.5,0,0,0,2.5,2.5H42.87a2.5,2.5,0,0,0,0-5H19.56V41.61H71.84A2.5,2.5,0,0,0,74.34,39.11Z"></path>
<circle  class="st0" cx="14.04" cy="17.31" r="2.79"></circle>
<circle  class="st0" cx="23.57" cy="17.31" r="2.79"></circle>
<circle  class="st0" cx="33.09" cy="17.31" r="2.79"></circle>
</svg>