<svg height='100px' width='100px'  fill="#1b8bcf" xmlns="http://www.w3.org/2000/svg" data-name="outline create" viewBox="0 0 512 512" x="0px" y="0px"><path d="M431.81,264h1.2a32,32,0,1,0,0-16h-1.2a174.756,174.756,0,0,0-19.223-72.3l12.763-9.116a31.994,31.994,0,1,0-8.131-13.855l-12.641,9.029a177.382,177.382,0,0,0-56.113-55.445l16.219-28.384a32.085,32.085,0,1,0-13.116-9.294L334.5,98.507A174.585,174.585,0,0,0,286.188,82.6a32,32,0,1,0-60.376,0,174.487,174.487,0,0,0-39.507,11.8l-8.5-19.828A31.984,31.984,0,1,0,160,80c.9,0,1.791-.047,2.673-.12l9.234,21.545A177.249,177.249,0,0,0,117.592,147.4l-41.7-35.742A32.034,32.034,0,1,0,64.8,123.221l43.455,37.247A174.868,174.868,0,0,0,80.19,248h-9.2a32,32,0,1,0,0,16h9.2A174.759,174.759,0,0,0,100.9,339.118l-31.575,21.05a31.978,31.978,0,1,0,8.886,13.305l30.917-20.611A177.229,177.229,0,0,0,177.712,413.6l-2.008,3.347a32.076,32.076,0,1,0,14.075,7.64l2.676-4.459a176.124,176.124,0,0,0,112.193,5.032l5.474,12.315A31.986,31.986,0,1,0,328,432c-.925,0-1.839.048-2.745.126L319.867,420a176.458,176.458,0,0,0,58.849-37.972l9.728,9.728a32.037,32.037,0,1,0,11.314-11.314l-10.087-10.087a176.36,176.36,0,0,0,27.522-43.739l14.933,6.637c-.078.906-.126,1.82-.126,2.745a32.026,32.026,0,1,0,5.472-17.878l-14.5-6.446A174.934,174.934,0,0,0,431.81,264ZM464,240a16,16,0,1,1-16,16A16.019,16.019,0,0,1,464,240ZM448,128a16,16,0,1,1-16,16A16.019,16.019,0,0,1,448,128ZM376,32a16,16,0,1,1-16,16A16.019,16.019,0,0,1,376,32ZM144,48a16,16,0,1,1,16,16A16.019,16.019,0,0,1,144,48ZM32,96a16,16,0,1,1,16,16A16.019,16.019,0,0,1,32,96Zm8,176a16,16,0,1,1,16-16A16.019,16.019,0,0,1,40,272Zm8,128a16,16,0,1,1,16-16A16.019,16.019,0,0,1,48,400Zm120,64a16,16,0,1,1,16-16A16.019,16.019,0,0,1,168,464Zm176,0a16,16,0,1,1-16-16A16.019,16.019,0,0,1,344,464ZM464,320a16,16,0,1,1-16,16A16.019,16.019,0,0,1,464,320ZM240,72a16,16,0,1,1,29.522,8.514Q262.828,80,256,80t-13.522.514A15.877,15.877,0,0,1,240,72ZM432,408a16,16,0,1,1-16-16A16.019,16.019,0,0,1,432,408Zm-118.641-2.64-18.048-40.609-14.622,6.5,17.389,39.125a160.131,160.131,0,0,1-97.262-4.185l6.044-10.073-13.72-8.232-7.172,11.953a161.106,161.106,0,0,1-63.531-55.847l26-17.334-8.876-13.312L114.281,330.2A158.847,158.847,0,0,1,96.2,264H120V248H96.2a160.183,160.183,0,0,1,82.043-131.791l6.4,14.942,14.706-6.3-6.746-15.741a158.7,158.7,0,0,1,43.72-11.9A31.889,31.889,0,0,0,248,102.987V136h16V102.987a31.889,31.889,0,0,0,11.673-5.777,160.237,160.237,0,0,1,115.864,73.861L371.35,185.49l9.3,13.02,18.759-13.4A158.837,158.837,0,0,1,415.8,248H376v16h39.8a159.071,159.071,0,0,1-7.531,41.143l-37.02-16.454-6.5,14.622,37.823,16.81A160.9,160.9,0,0,1,313.359,405.36Z"></path><path d="M176,232a31.85,31.85,0,0,0,20.893-7.793l5.45,5.45,11.314-11.314-7.539-7.539A32,32,0,1,0,176,232Zm0-48a16,16,0,1,1-16,16A16.019,16.019,0,0,1,176,184Z"></path><path d="M249.382,325.153l6.207-18.623-15.178-5.06-6.205,18.614c-.73-.049-1.464-.084-2.206-.084a32.045,32.045,0,1,0,17.382,5.153ZM232,368a16,16,0,1,1,16-16A16.019,16.019,0,0,1,232,368Z"></path><path d="M336,184a32,32,0,1,0-59.556,16.242l-10.1,10.1,11.314,11.314,10.1-10.1A31.979,31.979,0,0,0,336,184Zm-32-16a16,16,0,1,1-16,16A16.019,16.019,0,0,1,304,168Z"></path><path d="M324,256a28,28,0,1,0,28,28A28.032,28.032,0,0,0,324,256Zm0,40a12,12,0,1,1,12-12A12.013,12.013,0,0,1,324,296Z"></path><path d="M199.083,284.892l21.355-14.236-8.876-13.312-20.816,13.877a27.935,27.935,0,1,0,8.337,13.671ZM172,304a12,12,0,1,1,12-12A12.013,12.013,0,0,1,172,304Z"></path></svg>