<svg height='100px' width='100px'  fill="#1b8bcf" xmlns="http://www.w3.org/2000/svg" xmlns:xlink="http://www.w3.org/1999/xlink" version="1.1" x="0px" y="0px" viewBox="0 0 512 512" enable-background="new 0 0 512 512" xml:space="preserve"><g><path d="M32.004,274.891c2.32,0,4.461-0.75,6.211-2.016v0.016L251.957,119.68l-2.75,16.68c0,0.008,0,0.008,0,0.016   c-0.961,5.812,2.977,11.297,8.789,12.258s11.305-2.977,12.258-8.789l0,0l6.938-42.102l0,0l0,0   c0.969-5.812-2.969-11.297-8.789-12.258l0,0l-42.094-6.938l0,0c-5.82-0.961-11.305,2.977-12.266,8.789   c-0.953,5.812,2.977,11.297,8.789,12.258l0,0l16.688,2.75L25.793,255.555v0.008c-2.695,1.938-4.453,5.086-4.453,8.664   C21.34,270.117,26.113,274.891,32.004,274.891z"></path><path d="M480.004,32c0-5.891-4.781-10.664-10.656-10.664c-5.906,0-10.688,4.773-10.688,10.664h-10.656V10.664   C448.004,4.773,443.223,0,437.348,0h-64c-5.906,0-10.688,4.773-10.688,10.664V32h-10.656c0-5.891-4.781-10.664-10.656-10.664   c-5.906,0-10.688,4.773-10.688,10.664c-5.875,0-10.656,4.773-10.656,10.664V128c0,5.891,4.781,10.664,10.656,10.664h149.344   c5.891,0,10.656-4.773,10.656-10.664V42.664C490.66,36.773,485.895,32,480.004,32z M384.004,21.336h42.656V32h-42.656V21.336z    M469.348,117.336h-128v-64h128V117.336z"></path><path d="M320.004,266.664H170.668v106.68H21.34V512h149.328h21.336h128h21.344H490.66V160H320.004V266.664z M170.668,490.656h-128   v-96h128V490.656z M320.004,490.656h-128V373.344V288h128V490.656z M341.348,181.336h128v309.32h-128V266.664V181.336z"></path></g></svg>