
<?xml-stylesheet type="text/css" href="../css/main.css" ?>
<!-- Generator: Adobe Illustrator 23.0.4, SVG Export Plug-In . SVG Version: 6.00 Build 0)  -->
<svg onclick="window.open('../projects.html#engage');" version="1.1" id="Layer_1" xmlns="http://www.w3.org/2000/svg" xmlns:xlink="http://www.w3.org/1999/xlink" x="0px" y="0px"
	 viewBox="0 0 100 100" style="enable-background:new 0 0 100 100;" xml:space="preserve">
<path class="st0" d="M98.3,19.9C98.3,11.4,91,4.5,82,4.5s-16.3,6.9-16.3,15.3S73,35.2,82,35.2S98.3,28.3,98.3,19.9z M68.2,19.9
	c0-7.2,6.2-13,13.8-13s13.8,5.8,13.8,13c0,3.2-1.3,6.2-3.3,8.4c-0.7-2.7-2.5-5-5-6.4c1.4-1.3,2.2-3.1,2.2-4.9c0-3.9-3.3-7-7.4-7
	s-7.4,3.1-7.4,7c0,1.8,0.7,3.5,2,4.8c-2.7,1.4-4.6,3.8-5.2,6.6C69.5,26,68.2,23.1,68.2,19.9z M73.8,30.3c0.2-3.3,2.4-6.1,5.8-7.1
	c0.5-0.1,0.8-0.5,0.9-1c0.1-0.5-0.2-0.9-0.6-1.2c-1.6-0.8-2.6-2.4-2.6-4.1c0-2.6,2.2-4.6,4.9-4.6s4.9,2.1,4.9,4.6
	c0,1.8-1,3.3-2.7,4.1c-0.4,0.2-0.7,0.7-0.7,1.1c0,0.5,0.4,0.9,0.9,1c3.3,1,5.5,3.8,5.6,7c-2.3,1.6-5.1,2.6-8.2,2.6
	C78.9,32.8,76.1,31.9,73.8,30.3z"/>
<path class="st0" d="M18,4.5c-9,0-16.3,6.9-16.3,15.3S9,35.2,18,35.2s16.3-6.9,16.3-15.3S27,4.5,18,4.5z M9.8,30.3c0.2-3.3,2.4-6.1,5.8-7.1
	c0.5-0.1,0.8-0.5,0.9-1c0.1-0.5-0.2-0.9-0.6-1.2c-1.6-0.8-2.6-2.4-2.6-4.1c0-2.6,2.2-4.6,4.9-4.6s4.9,2.1,4.9,4.6
	c0,1.8-1,3.3-2.7,4.1c-0.4,0.2-0.7,0.7-0.7,1.1c0,0.5,0.4,0.9,0.9,1c3.3,1,5.5,3.8,5.6,7c-2.3,1.6-5.1,2.6-8.2,2.6
	C14.9,32.8,12.1,31.9,9.8,30.3z M28.4,28.3c-0.7-2.7-2.5-5-5-6.4c1.4-1.3,2.2-3.1,2.2-4.9c0-3.9-3.3-7-7.4-7s-7.4,3.1-7.4,7
	c0,1.8,0.7,3.5,2,4.8c-2.7,1.4-4.6,3.8-5.2,6.6c-2.1-2.3-3.3-5.2-3.3-8.4c0-7.2,6.2-13,13.8-13s13.8,5.8,13.8,13
	C31.8,23.1,30.5,26,28.4,28.3z"/>
<path class="st0" d="M82,95.6c9,0,16.3-6.9,16.3-15.3S91,64.9,82,64.9s-16.3,6.9-16.3,15.3S73,95.6,82,95.6z M73.8,90.7c0.2-3.3,2.4-6.1,5.8-7.1
	c0.5-0.1,0.8-0.5,0.9-1c0.1-0.5-0.2-0.9-0.6-1.2c-1.6-0.8-2.6-2.4-2.6-4.1c0-2.6,2.2-4.6,4.9-4.6s4.9,2.1,4.9,4.6
	c0,1.8-1,3.3-2.7,4.1c-0.4,0.2-0.7,0.7-0.7,1.1c0,0.5,0.4,0.9,0.9,1c3.3,1,5.5,3.8,5.6,7c-2.3,1.6-5.1,2.6-8.2,2.6
	C78.9,93.2,76.1,92.3,73.8,90.7z M82,67.3c7.6,0,13.8,5.8,13.8,13c0,3.2-1.3,6.2-3.3,8.4c-0.7-2.7-2.5-5-5-6.4
	c1.4-1.3,2.2-3.1,2.2-4.9c0-3.9-3.3-7-7.4-7s-7.4,3.1-7.4,7c0,1.8,0.7,3.5,2,4.8c-2.7,1.4-4.6,3.8-5.2,6.6c-2.1-2.3-3.3-5.2-3.3-8.4
	C68.2,73.1,74.4,67.3,82,67.3z"/>
<path class="st0" d="M18,64.9c-9,0-16.3,6.9-16.3,15.3S9,95.6,18,95.6s16.3-6.9,16.3-15.3S27,64.9,18,64.9z M9.8,90.7c0.2-3.3,2.4-6.1,5.8-7.1
	c0.5-0.1,0.8-0.5,0.9-1c0.1-0.5-0.2-0.9-0.6-1.2c-1.6-0.8-2.6-2.4-2.6-4.1c0-2.6,2.2-4.6,4.9-4.6s4.9,2.1,4.9,4.6
	c0,1.8-1,3.3-2.7,4.1c-0.4,0.2-0.7,0.7-0.7,1.1c0,0.5,0.4,0.9,0.9,1c3.3,1,5.5,3.8,5.6,7c-2.3,1.6-5.1,2.6-8.2,2.6
	C14.9,93.2,12.1,92.3,9.8,90.7z M28.4,88.7c-0.7-2.7-2.5-5-5-6.4c1.4-1.3,2.2-3.1,2.2-4.9c0-3.9-3.3-7-7.4-7s-7.4,3.1-7.4,7
	c0,1.8,0.7,3.5,2,4.8c-2.7,1.4-4.6,3.8-5.2,6.6c-2.1-2.3-3.3-5.2-3.3-8.4c0-7.2,6.2-13,13.8-13s13.8,5.8,13.8,13
	C31.8,83.5,30.5,86.4,28.4,88.7z"/>
<path class="st0" d="M3.1,63.5L1.7,63c-0.6-0.2-1.4,0.1-1.6,0.7c-0.2,0.6,0.1,1.3,0.7,1.5L5,66.7c0.1,0.1,0.3,0.1,0.4,0.1c0.5,0,1-0.3,1.2-0.8
	L8.3,62c0.2-0.6-0.1-1.3-0.7-1.5c-0.6-0.2-1.4,0.1-1.6,0.7l-0.5,1.3C3.5,58.6,2.5,54.4,2.5,50c0-4.7,1.1-9.1,3.3-13.3
	c0.3-0.6,0.1-1.3-0.6-1.6c-0.6-0.3-1.4,0-1.7,0.5C1.2,40.2,0,45,0,50C0,54.7,1.1,59.2,3.1,63.5z"/>
<path class="st0" d="M35.5,3c-0.6-0.2-1.4,0.1-1.6,0.7l-1.6,3.9C32,8.2,32.3,8.9,33,9.1l4.2,1.5c0.1,0.1,0.3,0.1,0.4,0.1c0.5,0,1-0.3,1.2-0.8
	c0.2-0.6-0.1-1.3-0.7-1.5L36.8,8c4.2-1.8,8.6-2.7,13.2-2.7c4.9,0,9.7,1,14.1,3.1c0.2,0.1,0.4,0.1,0.6,0.1c0.5,0,0.9-0.2,1.1-0.7
	c0.3-0.6,0.1-1.3-0.6-1.6C60.4,4,55.3,2.9,50,2.9c-5,0-9.8,1-14.4,3l0.6-1.4C36.5,3.9,36.1,3.2,35.5,3z"/>
<path class="st0" d="M64.5,96.9C64.7,97,64.8,97,65,97c0.5,0,1-0.3,1.2-0.8l1.6-3.9c0.1-0.3,0.1-0.6,0-0.9c-0.1-0.3-0.4-0.5-0.7-0.6l-4.2-1.5
	c-0.6-0.2-1.4,0.1-1.6,0.7c-0.2,0.6,0.1,1.3,0.7,1.5l1.4,0.5c-4.2,1.8-8.7,2.8-13.3,2.8c-4.9,0-9.7-1-14.1-3.1
	c-0.6-0.3-1.4,0-1.7,0.5c-0.3,0.6-0.1,1.3,0.6,1.6c4.8,2.2,9.9,3.3,15.2,3.3c5,0,9.8-1,14.3-3l-0.5,1.3C63.6,96,63.9,96.7,64.5,96.9
	z"/>
<path class="st0" d="M98.3,37c0.6,0.2,1.4-0.1,1.6-0.7c0.2-0.6-0.1-1.3-0.7-1.5L95,33.3c-0.3-0.1-0.7-0.1-1,0c-0.3,0.1-0.5,0.4-0.7,0.7l-1.6,3.9
	c-0.2,0.6,0.1,1.3,0.7,1.5c0.1,0.1,0.3,0.1,0.4,0.1c0.5,0,1-0.3,1.2-0.8l0.5-1.2c1.9,3.9,2.9,8.1,2.9,12.5c0,4.7-1.1,9.1-3.3,13.3
	c-0.3,0.6-0.1,1.3,0.6,1.6c0.2,0.1,0.4,0.1,0.6,0.1c0.5,0,0.9-0.2,1.1-0.7C98.8,59.8,100,55,100,50c0-4.7-1.1-9.3-3.2-13.6L98.3,37z
	"/>
</svg>
