<svg height='100px' width='100px'  fill="#1b8bcf" xmlns="http://www.w3.org/2000/svg" data-name="Layer 1" viewBox="0 0 512 512" x="0px" y="0px"><title>a1</title><g data-name="Group"><path data-name="Compound Path" d="M29.683,413H182.81l-14.392,52H142.467a10,10,0,1,0,0,20H369.533a10,10,0,0,0,0-20H343.582L329.19,413H482.316A9.376,9.376,0,0,0,492,403.43v-60h0v-20h0V37.242C492,31.72,487.839,27,482.316,27H29.683C24.16,27,20,31.72,20,37.242V403.43A9.375,9.375,0,0,0,29.683,413ZM322.81,465H189.19l14.392-52H308.418ZM40,47H472V323H40ZM472,343v50H40V343Z"></path><path data-name="Compound Path" d="M325,165H286V126a10,10,0,0,0-10-10H236a10,10,0,0,0-10,10v39H187a10,10,0,0,0-10,10v40a10,10,0,0,0,10,10h39v39a10,10,0,0,0,10,10h40a10,10,0,0,0,10-10V225h39a10,10,0,0,0,10-10V175A10,10,0,0,0,325,165Zm-10,40H276a10,10,0,0,0-10,10v39H246V215a10,10,0,0,0-10-10H197V185h39a10,10,0,0,0,10-10V136h20v39a10,10,0,0,0,10,10h39Z"></path></g></svg>