<?xml-stylesheet type="text/css" href="../css/main.css" ?>

<!-- Generator: Adobe Illustrator 23.0.4, SVG Export Plug-In . SVG Version: 6.00 Build 0)  -->
<svg onclick="window.open('../projects.html#skills');" version="1.1" id="Layer_1" xmlns="http://www.w3.org/2000/svg" xmlns:xlink="http://www.w3.org/1999/xlink" x="0px" y="0px"
	 viewBox="0 0 100 100" style="enable-background:new 0 0 100 100;" xml:space="preserve">
<path class="st0" d="M98.3,52.5l-5.9-15.6c-1.2-19.6-17.7-35.1-38-35.1c-21,0-38,16.7-38,37.3c0,5.9,1.4,12.8,4.6,19.2C24.1,64.4,29,70,36,73.5
	v19.6c0,0.5,0.2,1,0.6,1.3c0.4,0.4,0.9,0.6,1.4,0.6h31.3c0.5,0,1-0.2,1.4-0.6c0.4-0.4,0.6-0.8,0.6-1.3v-11h9.2
	c5.5,0,9.9-4.4,9.9-9.8V62.2l4.2-1.5c2.6-1,4.2-3.4,4.2-6C98.7,54,98.5,53.2,98.3,52.5z M93.1,57.1l-5.4,2c-0.8,0.3-1.3,1-1.3,1.8
	v11.5c0,3.3-2.7,6-6.1,6H69.2c-0.5,0-1,0.2-1.4,0.6c-0.4,0.4-0.6,0.8-0.6,1.3v11H39.8V72.4c0-0.7-0.4-1.4-1.1-1.7
	c-6.7-3-11.3-8.2-14.2-14c-3-5.8-4.2-12.2-4.2-17.5c0-9.3,3.8-17.6,10-23.7C36.5,9.3,45,5.5,54.4,5.5c18.3,0,33.2,14.1,34.1,31.8
	l0.1,0.6l6,15.9c0.1,0.3,0.2,0.6,0.2,0.9C94.8,55.8,94.1,56.7,93.1,57.1z"/>
<path class="st0" d="M79.9,28.9c-1.1,0-2.2-0.6-2.6-1.7c-0.5-1.2,0-2.6,1.1-3.3c-0.5-0.6-1.1-1.2-1.8-1.7c-0.7-0.5-1.3-0.9-2.1-1.3
	c-0.4,1.1-1.5,1.9-2.6,1.9c-0.3,0-0.5,0-0.8-0.1c-1.3-0.4-2.1-1.6-2-2.9c-1.6,0-3.2,0.4-4.7,1.1c0.8,1.2,0.5,2.9-0.8,3.7
	c-0.5,0.3-1,0.5-1.6,0.5c-0.7,0-1.4-0.3-2-0.8c-1,1.3-1.7,2.8-2.1,4.3c1.5,0.2,2.6,1.4,2.5,2.9c-0.1,1.3-1.1,2.4-2.4,2.5
	c0.4,1.5,1.1,3,2.1,4.3c0.5-0.5,1.3-0.8,2-0.8c0.7,0,1.4,0.2,1.9,0.7c1,0.9,1.2,2.3,0.5,3.5c1.5,0.7,3.1,1,4.7,1
	c-0.2-1.4,0.8-2.8,2.4-3l0.4,0c1.2,0,2.2,0.7,2.6,1.8c1.4-0.7,2.7-1.7,3.8-3c-1.2-0.8-1.7-2.4-0.9-3.7c0.5-0.9,1.5-1.4,2.4-1.4
	c0.3,0,0.6,0,0.9,0.1c0.3-1.6,0.3-3.2,0-4.8C80.5,28.8,80.2,28.9,79.9,28.9z M74.2,32.9c-0.6,1-0.9,2.1-0.9,3.1
	c-0.4-0.1-0.8-0.1-1.2-0.1c-0.3,0-0.7,0-1,0.1c-1.1,0.2-2.2,0.6-3,1.3c-0.3-0.6-0.8-1.2-1.4-1.7c-0.8-0.7-1.8-1.3-2.9-1.5
	c0.3-0.7,0.5-1.4,0.5-2.1c0.1-1.1-0.1-2.2-0.6-3.2c0.7-0.2,1.4-0.5,2-0.9c0.9-0.6,1.7-1.5,2.2-2.4c0.6,0.4,1.3,0.8,2,1
	c0.6,0.2,1.3,0.3,1.9,0.3c0.5,0,0.9,0,1.3-0.1c0,0.7,0.2,1.5,0.5,2.2c0.4,1,1.1,1.9,1.9,2.6C75,31.6,74.5,32.2,74.2,32.9z"/>
<path class="st0" d="M56.4,19.4c-0.2-1.3-0.7-2.6-1.5-3.8c-0.5,0.5-1.2,0.8-1.9,0.8c-0.6,0-1.2-0.2-1.7-0.6c-1.1-0.9-1.4-2.4-0.7-3.5
	c-1.1-0.4-2.2-0.6-3.3-0.6c-0.3,0-0.5,0-0.8,0c0.3,1.3-0.4,2.7-1.7,3.2c-0.3,0.1-0.7,0.2-1,0.2c-1,0-1.9-0.5-2.4-1.4
	c-0.5,0.4-1,0.9-1.5,1.5c-0.4,0.6-0.8,1.1-1.1,1.7c1.3,0.4,2.2,1.7,2,3c-0.2,1.4-1.4,2.4-2.8,2.4c0.2,1.3,0.7,2.6,1.5,3.8
	c0.5-0.5,1.2-0.8,1.9-0.8c0.6,0,1.2,0.2,1.7,0.6c1.1,0.9,1.4,2.4,0.7,3.5c1.1,0.4,2.2,0.6,3.3,0.6c0.3,0,0.5,0,0.8,0
	c-0.3-1.3,0.4-2.7,1.7-3.2c0.3-0.1,0.7-0.2,1-0.2c1,0,1.9,0.5,2.4,1.4c0.5-0.4,1-0.9,1.5-1.5c0.4-0.6,0.8-1.1,1.1-1.7
	c-1.3-0.4-2.2-1.7-2-3C53.9,20.4,55.1,19.4,56.4,19.4z M49.9,21.3c-0.1,0.6-0.1,1.1,0,1.7c-0.6,0.1-1.1,0.2-1.6,0.4
	c-0.5,0.2-1,0.5-1.5,0.8c-0.3-0.4-0.7-0.8-1.2-1.2c-0.4-0.3-0.9-0.6-1.5-0.8c0.2-0.5,0.4-1,0.4-1.6c0.1-0.6,0.1-1.1,0-1.7
	c0.6-0.1,1.1-0.2,1.7-0.4c0.5-0.2,1-0.5,1.5-0.8c0.3,0.4,0.7,0.8,1.2,1.2c0.4,0.3,0.9,0.6,1.5,0.8C50.1,20.1,49.9,20.7,49.9,21.3z"
	/>
<path class="st0" d="M51.3,45.1c0.1-1.3,1.1-2.4,2.4-2.6c-0.3-1.3-0.8-2.6-1.6-3.8c-0.5,0.4-1.1,0.5-1.7,0.5c-0.8,0-1.7-0.4-2.2-1.1
	c-0.8-1-0.8-2.6,0.2-3.5c-1.1-0.8-2.4-1.5-3.7-1.9c-0.3,1.2-1.4,2.1-2.7,2.1l-0.6-0.1c-1.3-0.3-2.2-1.5-2.2-2.8
	c-1.4,0.1-2.8,0.4-4.1,0.8c0.7,1.3,0.2,3-1.2,3.7c-0.4,0.2-0.8,0.3-1.3,0.3c-0.9,0-1.7-0.4-2.2-1.1c-0.5,0.5-1,1-1.4,1.5
	c-0.4,0.5-0.8,1.1-1.2,1.7c1.4,0.6,2.1,2.2,1.5,3.6c-0.4,1-1.5,1.7-2.6,1.7l-0.6-0.1c-0.2,1.4-0.1,2.7,0.2,4.1
	c0.3-0.1,0.5-0.1,0.8-0.1c1.2,0,2.3,0.7,2.7,1.9c0.4,1.3-0.2,2.7-1.4,3.3c0.8,1.1,1.7,2.1,2.8,3c0.5-0.8,1.4-1.2,2.3-1.2
	c0.5,0,1,0.1,1.5,0.4c1.1,0.7,1.6,2.1,1.1,3.4c1.3,0.4,2.6,0.6,4,0.6h0.1c-0.2-1.5,0.9-2.8,2.4-3l0.4,0c1.2,0,2.3,0.8,2.7,1.9
	c1.3-0.5,2.5-1.3,3.5-2.2c-1.1-1-1.2-2.7-0.1-3.9c0.5-0.6,1.3-0.9,2.1-0.9c0.5,0,1,0.1,1.5,0.4c0.6-1.2,1.1-2.6,1.3-3.9
	C52.4,47.9,51.2,46.7,51.3,45.1z M46.2,49.8c-0.8,0.9-1.4,2-1.6,3.1c-0.5-0.1-1.1-0.2-1.6-0.2c-0.3,0-0.6,0-0.9,0.1
	c-1.2,0.2-2.3,0.6-3.2,1.4c-0.5-0.7-1.1-1.2-1.8-1.7c-1-0.6-2.2-1-3.4-1c0.1-0.8,0-1.6-0.3-2.4c-0.4-1.2-1-2.1-1.9-2.9
	c0.6-0.6,1-1.3,1.4-2c0.5-1.1,0.6-2.3,0.4-3.4c0.8-0.1,1.7-0.3,2.4-0.7c1.1-0.6,2-1.4,2.6-2.4c0.7,0.5,1.5,0.8,2.3,1
	c0.5,0.1,1,0.2,1.4,0.2c0.7,0,1.4-0.1,2.1-0.3c0.2,0.8,0.6,1.5,1.1,2.2c0.7,1,1.7,1.7,2.8,2.1c-0.3,0.7-0.5,1.5-0.6,2.4
	c-0.1,1.2,0.2,2.4,0.8,3.4C47.5,48.7,46.8,49.2,46.2,49.8z"/>
</svg>
