<?xml version="1.0" encoding="UTF-8"?> <!-- Generator: Adobe Illustrator 24.0.1, SVG Export Plug-In . SVG Version: 6.00 Build 0) --> <svg xmlns="http://www.w3.org/2000/svg" xmlns:xlink="http://www.w3.org/1999/xlink" version="1.1" id="Layer_1" x="0px" y="0px" viewBox="0 0 360 220.58" style="enable-background:new 0 0 360 220.58;" xml:space="preserve"> <style type="text/css"> .st0{fill:#001223;} .st1{fill:#7CCAB3;} .st2{fill:#63C3AC;} .st3{fill:#6DC5AD;} .st4{fill:#61C2A8;} .st5{fill:#62C2A9;} .st6{fill:#66C3A7;} .st7{fill:#5BC1A9;} .st8{fill:#62C2AA;} .st9{fill:#63C2A6;} .st10{fill:#77C8AF;} .st11{fill:#73C7AF;} .st12{fill:#67C3AA;} .st13{fill:#63C3A8;} .st14{fill:#6DC5A8;} .st15{fill:#6FC5A8;} .st16{fill:#68C3A7;} .st17{fill:#35B994;} .st18{fill:#6AC4AA;} .st19{fill:#4ABC9B;} .st20{fill:#72C6AD;} .st21{fill:#82CBB0;} .st22{fill:#2DB894;} .st23{fill:#49BC9A;} .st24{fill:#57BFA1;} .st25{fill:#5AC0A2;} .st26{fill:#4DBD9D;} .st27{fill:#2EB892;} .st28{fill:#128A7F;} .st29{fill:#4CBC95;} .st30{fill:#38B997;} .st31{fill:#0FA88D;} .st32{fill:#0C8479;} .st33{fill:#039984;} .st34{fill:#13A488;} .st35{fill:#53BE9E;} .st36{fill:#1EA98B;} .st37{fill:#159882;} .st38{fill:#62C2A7;} .st39{fill:#08616A;} .st40{fill:#30B78D;} .st41{fill:#5EC1A3;} .st42{fill:#4DBC93;} .st43{fill:#2DB78E;} .st44{fill:#41BA8F;} .st45{fill:#1AAD85;} .st46{fill:#1AA984;} .st47{fill:#32B78A;} .st48{fill:#12987E;} .st49{fill:#56BD8F;} .st50{fill:#53BD8F;} .st51{fill:#037B78;} .st52{fill:#139A80;} .st53{fill:#3EBA98;} .st54{fill:#055F68;} .st55{fill:#066568;} .st56{fill:#0E746F;} .st57{fill:#108176;} .st58{fill:#0EB191;} .st59{fill:#48BC98;} .st60{fill:#50BC93;} .st61{fill:#2FB88F;} .st62{fill:#5CBF98;} .st63{fill:#1AAA8A;} .st64{fill:#65C196;} .st65{fill:#1DA384;} .st66{fill:#139585;} .st67{fill:#17A58B;} .st68{fill:#24B898;} .st69{fill:#62C19A;} .st70{fill:#55BE9D;} .st71{fill:#45BA8F;} .st72{fill:#38B991;} </style> <g> <path class="st0" d="M120.92,52.77L120.92,52.77C120.92,23.76,97.17,0,68.15,0H0v29.71v75.84v45.09h120.92l-45.64-45.64 C100.98,101.53,120.92,79.37,120.92,52.77z"></path> <circle class="st0" cx="200.29" cy="75.35" r="75.35"></circle> <rect x="288.32" y="0" class="st0" width="71.68" height="150.63"></rect> <g> <path class="st1" d="M210.33,12.95c-1.25-0.76-2.49-1.59-3.74-2.35l-4.99,6.23L210.33,12.95z"></path> <path class="st2" d="M200.08,6.86c-0.07,0.07-0.21,0.07-0.28,0.14c-0.42,0.28-0.83,0.42-1.32,0.28c-0.21-0.07-0.42,0-0.62,0.07 l0,0c-0.07,0.28-0.21,0.55-0.28,0.76c-0.28,0.62-0.83,0.42-1.32,0.48c0,0.42-0.07,0.83-0.48,1.11c-0.21,0.14-0.35,0.28-0.48,0.42 c-0.35,0.28-0.62,0.62-0.83,0.97l7.27,5.68L200.08,6.86z"></path> <path class="st3" d="M206.59,10.53c-1.87-1.18-3.67-2.35-5.54-3.53c-0.35-0.21-0.69-0.35-0.97-0.21l1.52,9.9L206.59,10.53z"></path> <path class="st4" d="M197.66,23.76l-9.7-2.56c-0.14,0.21-0.14,0.48-0.21,0.76c0.21-0.14,0.35-0.21,0.48-0.28c0.14,0,0.28,0,0.42,0 c-0.07,0.14-0.07,0.28-0.14,0.35c-0.28,0.21-0.48,0.48-0.76,0.62c-0.62,0.35-1.04,0.9-1.32,1.59c-0.14,0.35-0.42,0.62-0.69,0.9 l0,0c-0.28,0.14-0.55,0.35-0.76,0.48l9.07,12.47L197.66,23.76z"></path> <path class="st5" d="M184.92,25.76c-0.35,0.21-0.62,0.42-0.97,0.62c-0.55,0.35-1.11,0.55-1.66,0.83 c-0.48,0.21-0.69,0.55-0.76,1.11c-0.07,0.35-0.07,0.62,0.28,0.76c0.07,0,0.14,0.07,0.21,0.14c0.28,0.69,0.62,1.39,0.9,2.15l0,0 c0.35,0.21,0.62,0.42,0.9,0.69l10.25,6.16L184.92,25.76z"></path> <path class="st6" d="M221.76,35.18l6.65-11.5c-0.97-0.55-1.94-1.11-2.91-1.66l-8.38,0.97L221.76,35.18z"></path> <path class="st7" d="M193.23,14.47c0,0.14,0.07,0.35,0,0.48c-0.28,0.55-0.55,1.18-0.9,1.73c-0.21,0.35-0.55,0.55-0.83,0.83 c-0.28,0.55-0.62,1.11-0.9,1.66c-0.48,0.35-0.97,0.69-1.45,1.04l0,0c-0.21,0.21-0.35,0.48-0.62,0.48 c-0.35,0.07-0.55,0.21-0.69,0.48l9.7,2.56l-4.64-9.97l0,0C192.67,14.13,193.02,14.27,193.23,14.47z"></path> <path class="st8" d="M193.71,12.67L193.71,12.67c-0.28,0.42-0.48,0.76-0.69,1.18l4.64,9.97l3.95-7l-7.27-5.68 c-0.28,0.42-0.42,0.83-0.42,1.32C193.92,12.54,193.78,12.6,193.71,12.67z"></path> <polygon class="st9" points="221.76,35.18 217.12,23.06 200.36,32.55 "></polygon> <path class="st10" d="M225.5,22.02c-2.29-1.32-4.57-2.7-6.86-4.02l-1.52,5.06L225.5,22.02z"></path> <path class="st11" d="M217.12,23.06l1.52-5.06c-1.04-0.62-2.08-1.25-3.12-1.87c-1.73-1.04-3.46-2.15-5.19-3.26l-8.73,3.81 L217.12,23.06z"></path> <polygon class="st12" points="201.61,16.76 197.66,23.76 217.12,23.06 "></polygon> <polygon class="st13" points="217.12,23.06 197.66,23.76 200.36,32.55 "></polygon> <path class="st14" d="M184.43,54.02c0,0.21,0,0.42,0,0.69l2.22,6.3c0.76-0.21,1.45,0,1.94,0.69l0,0c0.14,0.28,0.28,0.48,0.35,0.76 c0.07,0.28,0.14,0.55,0.28,0.9l6.72-12.19l-13.57-2.29l1.45,4.09C184.22,53.12,184.36,53.47,184.43,54.02z"></path> <path class="st15" d="M183.12,52.22c0.07,0.07,0.07,0.14,0.07,0.21c0.07,0.07,0.21,0.21,0.28,0.28c0.14,0.07,0.28,0.14,0.35,0.14 l-1.45-4.09l-0.83,2.63C182.15,51.53,182.84,51.8,183.12,52.22z"></path> <path class="st15" d="M184.5,56.93c0,0.35,0,0.69-0.14,0.97c-0.28,0.48-0.21,0.9-0.07,1.32c0.14,0.42,0.14,0.9,0.21,1.39 c0.35,0.21,0.69,0.42,1.04,0.62c0.35-0.07,0.76-0.07,1.11-0.14h0.07l-2.22-6.3C184.5,55.41,184.5,56.17,184.5,56.93z"></path> <polygon class="st16" points="193.99,38.23 182.35,48.83 195.93,51.18 "></polygon> <path class="st17" d="M219.55,54.78L219.55,54.78c0-0.28,0-0.62-0.07-0.9c-0.21-1.04,0.21-1.32,1.18-1.59 c0.35-0.07,0.48-0.21,0.55-0.48c0.14-0.48,0.28-0.9,0.42-1.39c0.07-0.21,0-0.42,0-0.62c-0.14-0.83,0-1.59,0.55-2.08l-5.06-1.59 L219.55,54.78L219.55,54.78z"></path> <path class="st17" d="M224.26,58.8c-0.42,0.35-0.9,0.14-1.32-0.48l0,0c-0.14,0.21-0.28,0.35-0.42,0.55 c-0.21,0.42-0.55,0.55-1.04,0.69c0.07-0.76-0.42-0.9-0.83-1.04l1.11,3.95l3.53-3.67l0,0C224.95,58.52,224.67,58.45,224.26,58.8z"></path> <path class="st18" d="M193.99,38.23l-10.25-6.16c0.21,0.28,0.35,0.62,0.35,1.04c0,0.35,0.35,0.69,0.55,1.04 c0.48,0.69,0.42,1.32-0.21,1.73c-0.21,0.14-0.48,0.07-0.76,0.14c-0.14,0-0.42,0-0.48,0.14c-0.07,0.14-0.07,0.42,0.07,0.48 c0.48,0.48,0.28,0.9-0.07,1.32c-0.21,0.35-0.42,0.76-0.62,1.11l0,0c-0.14,0.14-0.21,0.28-0.35,0.35 c-0.14,0.14-0.42,0.28-0.48,0.48c-0.07,0.14-0.21,0.28-0.35,0.35l1.04,8.52L193.99,38.23z"></path> <polygon class="st9" points="200.36,32.55 193.99,38.23 195.93,51.18 "></polygon> <path class="st19" d="M228.62,44.46C228.62,44.39,228.62,44.39,228.62,44.46c0.07-0.14,0.07-0.21,0.07-0.28 c0.62-0.9,0.62-1.94,0.9-2.91c0.14-0.62,0.62-1.18,0.9-1.73c0.48-0.83,0.97-1.66,1.39-2.49c0.35-0.83,0.55-1.87,0.97-2.7 c0.55-1.18,0.9-2.49,1.18-3.74l-12.19,4.64l6.51,9.35C228.34,44.53,228.48,44.46,228.62,44.46z"></path> <path class="st20" d="M181.39,40.31c-0.14,0.07-0.35,0.07-0.55,0c-0.35-0.07-0.62-0.21-0.97-0.28l0,0 c-0.28,0.55-0.35,1.25-1.11,1.39c0,0.21,0.07,0.42,0.07,0.62c0.62,0.35,0.69,1.04,0,1.45l0,0c-0.07,0.28-0.21,0.55-0.28,0.83 c-0.21,0.62,0,0.97,0.62,1.18c0.48,0.14,0.55,0.42,0.28,0.76c-0.14,0.14-0.28,0.35-0.42,0.48c-0.21,0.28-0.28,0.62-0.07,0.97 c0.42,0.69,0.28,1.18-0.35,1.52c0.07,0.14,0.14,0.28,0.21,0.42l3.67-0.97L181.39,40.31z"></path> <path class="st21" d="M178.89,50.9c-0.07,0.28-0.14,0.48,0.14,0.69c0.35,0.28,0.62,0.48,1.11,0.35c0.14-0.07,0.35-0.14,0.48-0.28 c0.21-0.14,0.55-0.28,0.9-0.21l0.83-2.63l-3.67,0.97c0,0.07,0.07,0.14,0.07,0.21C178.82,50.28,178.89,50.63,178.89,50.9z"></path> <path class="st22" d="M221.76,62.47l-1.11-3.95c-0.21-0.07-0.42-0.14-0.62-0.28c-0.14-0.14-0.35-0.07-0.48-0.21 c-0.21-0.14-0.42-0.35-0.48-0.55c-0.21-0.55-0.35-1.04-0.9-1.25c-0.14-0.07-0.21-0.21-0.28-0.28c-0.28-0.35-0.48-0.35-0.76,0 c-0.21,0.28-0.35,0.62-0.62,0.83c-0.35,0.28-0.76,0.42-1.18,0.07c0.48-0.42,0.9-0.9,1.32-1.32l0,0c0.55-0.62,1.18-0.55,1.66,0.07 c0.07,0.07,0.28,0.21,0.35,0.21c0.14-0.07,0.28-0.21,0.42-0.42c0.14-0.21,0.28-0.42,0.42-0.62l-2.49-8.59l-14.54,27.7 L221.76,62.47z"></path> <path class="st23" d="M222.18,47.79c0.07-0.07,0.07-0.07,0.14-0.14c0.14-0.07,0.28-0.07,0.35-0.14c0.28-0.14,0.48-0.28,0.76-0.42 c0.21-0.21,0.42-0.35,0.62-0.55c0.14-0.21,0.28-0.42,0.42-0.62l0,0c-0.28-0.21-0.62-0.42-0.9-0.55c0.07-0.07,0.07-0.14,0.14-0.21 c0.14,0.07,0.28,0.14,0.42,0.21c0.07,0,0.21,0,0.35,0c0-0.14,0-0.28-0.07-0.35c-0.14-0.14-0.35-0.28-0.48-0.42 c0-0.07,0.07-0.14,0.07-0.14c0.28,0.14,0.62,0.28,1.04,0.48c0.14-0.62,0.21-1.18,0.35-1.87c0.42,0.55,0.62,0.35,0.83-0.07 c0.07-0.14,0.21-0.28,0.35-0.42c-0.35,1.8-0.97,3.39-2.22,4.92c0.35,0,0.48,0.07,0.69,0.07c0.42-0.07,0.9-0.21,1.32-0.28 c0.28-0.07,0.35-0.28,0.21-0.48c-0.07-0.14-0.21-0.28-0.28-0.48c0.28,0.07,0.55,0.14,0.83,0.21c-0.21-0.14-0.42-0.28-0.69-0.48 c0.21-0.07,0.28-0.07,0.35-0.14c0.14-0.07,0.35-0.14,0.42-0.28c0.14-0.14,0.14-0.35,0.21-0.48s0.14-0.28,0.28-0.35 c0.14-0.07,0.35-0.14,0.48-0.21l-6.51-9.35l-4.64,11.01L222.18,47.79z"></path> <polygon class="st24" points="217.12,46.19 221.76,35.18 200.36,32.55 "></polygon> <polygon class="st25" points="217.12,46.19 200.36,32.55 195.93,51.18 "></polygon> <polygon class="st26" points="202.58,73.9 217.12,46.19 195.93,51.18 "></polygon> <path class="st27" d="M196.48,77.64c-0.28,0.07-0.48,0-0.83-0.14c-0.76-0.35-0.83-0.28-1.18,0.42c-0.55,1.18-1.45,2.15-2.77,2.42 c-0.42,0.07-0.83,0.21-1.32,0.28c-0.14,0-0.21,0.07-0.35,0.14c-0.35,0.21-0.62,0.42-0.97,0.62l1.11,8.38l7.9-11.43L196.48,77.64z"></path> <path class="st28" d="M227.03,83.11c0.14-0.48,0.48-0.55,0.83-0.62l0.07-0.07c0-0.28,0.07-0.69,0-0.69c-0.28-0.07-0.62-0.07-0.9,0 c-0.83,0.21-1.66,0-1.87-0.83c1.18,0.42,2.29,0.48,3.32-0.35c0,0.28,0,0.48,0,0.69h0.07c0.14-0.69,0.35-1.45,0.48-2.15 c0-0.07-0.28-0.35-0.28-0.35c-0.21,0.07-0.42,0.28-0.62,0.35c-0.28,0.14-0.55,0.28-0.83,0.28c-0.62-0.14-1.11-1.18-0.9-1.94 c0.14,0.21,0.28,0.48,0.35,0.69c0.28,0.97,0.76,1.04,1.45,0.35c0.14-0.14,0.42-0.14,0.55-0.21c0.14-0.07,0.35-0.14,0.42-0.28 c0.35-1.25,0.62-2.49,0.9-3.74c0-0.07,0-0.07-0.07-0.21c-0.55,0-1.04,0.55-1.59,0.14c-0.14-0.07-0.14-0.28-0.28-0.48 c0.48,0,0.9,0.14,0.76-0.62c0.07,0,0.07,0.07,0.14,0.07c0.14,0.14,0.21,0.21,0.35,0.35c0.14,0.14,0.28,0.35,0.35,0.28 c0.21-0.07,0.48-0.28,0.55-0.42c0.14-0.35,0.21-0.76,0.28-1.11l-16.62,3.95l13.02,7.27C226.96,83.32,227.03,83.25,227.03,83.11z"></path> <path class="st29" d="M187.96,82.07C187.96,82.14,187.96,82.14,187.96,82.07c-0.07,0.35-0.14,0.62-0.48,0.69 c-0.14,0-0.21,0.21-0.35,0.28c-0.35,0.42-0.83,0.69-1.39,0.76c-0.48,0.07-0.69,0.35-0.9,0.76c-0.14,0.35-0.48,0.69-0.69,1.04 c-0.07,0.14-0.07,0.35-0.14,0.42c-0.48,0.28-1.04,0.55-1.52,0.76c-0.14,0.07-0.28,0.07-0.42,0c-0.55-0.07-0.69,0.07-0.62,0.62 c0,0.07,0,0.14,0,0.14l8.73,2.08l-1.11-8.38C188.8,81.59,188.38,81.86,187.96,82.07z"></path> <path class="st19" d="M197.04,77.36c-0.14,0.14-0.35,0.21-0.48,0.28l1.59,0.69l-0.9-1.18C197.18,77.22,197.11,77.29,197.04,77.36z "></path> <path class="st30" d="M193.78,69.19c0.14,0.42,0.28,0.76,0.42,1.18l0,0c0.9,0.21,1.66,0.76,2.35,1.39 c0.28,0.28,0.55,0.55,0.76,0.9c0.21,0.35,0.35,0.76,0.48,1.11c0.76,0.28,1.32,0.76,1.39,1.66c0.07,0.62-0.42,1.25-1.04,1.45 c-0.35,0.07-0.62,0.21-0.9,0.35l0.9,1.18l4.43-4.43l-9.07-5.47C193.57,68.7,193.71,68.91,193.78,69.19z"></path> <path class="st31" d="M231.32,67.66c0.14-0.76,0.28-1.59,0.42-2.35c-0.28-0.14-0.42-0.21-0.62-0.28l0,0 c-0.07,0.9-0.9,0.48-1.39,0.83c0.07-0.42-0.14-0.83,0.42-1.18c0.42-0.21,0.76-0.55,1.11-0.83c0.14-0.14,0.14-0.55,0.14-0.76 c0-0.07-0.35-0.28-0.48-0.21c-0.48,0.14-1.04,0.35-1.52,0.48c-0.48,0.21-0.9,0.42-1.39,0.62c-0.21,0-0.35,0.07-0.55,0.07 c0.07-0.07,0.07-0.14,0.14-0.28c0.14-0.21,0.28-0.55,0.48-0.69c0.42-0.28,0.9-0.48,1.39-0.69h0.07h-7.76L231.32,67.66z"></path> <path class="st32" d="M225.02,85.12L225.02,85.12L225.02,85.12c-0.28-0.14-0.48-0.21-0.69-0.35c0.21-0.83,0.97-0.42,1.45-0.83 c-0.28-0.28-0.55-0.62-0.83-0.9c0.07-0.07,0.07-0.07,0.14-0.14c0.35,0.07,0.69-0.07,0.97,0.35c0.21,0.35,0.62,0.42,0.83,0.14 l-13.02-7.27l-2.84,15.51L225.02,85.12z"></path> <path class="st33" d="M213.87,76.11l16.62-3.95c0.07-0.21,0.07-0.42,0.14-0.69c0.21-1.25,0.48-2.56,0.69-3.81l-9.56-5.19 L213.87,76.11z"></path> <polygon class="st34" points="213.87,76.11 221.76,62.47 202.58,73.9 "></polygon> <path class="st35" d="M190.11,65.66c0.07,0.07,0.14,0.14,0.14,0.14c1.52,0.42,2.56,1.32,3.19,2.63l9.07,5.47l-6.65-22.79 l-6.72,12.19c0.14,0.55,0.28,1.04,0.48,1.59C189.77,65.17,189.97,65.38,190.11,65.66z"></path> <polygon class="st36" points="198.15,78.33 213.87,76.11 202.58,73.9 "></polygon> <polygon class="st37" points="211.03,91.63 213.87,76.11 198.15,78.33 "></polygon> <polygon class="st38" points="200.36,32.55 197.66,23.76 193.99,38.23 "></polygon> <path class="st39" d="M217.4,106.73c0.21-0.14,0.48-0.28,0.69-0.42c0.28-0.14,0.62-0.14,0.76,0.28c0.35,0.07,0.35-0.14,0.42-0.42 c0-0.21,0.14-0.35,0.21-0.48c0-0.28,0.07-0.55,0.07-0.83c0-0.42,0.28-0.55,0.62-0.48l0,0c0.21,0,0.42-0.07,0.55-0.07 c0.48,0.07,0.55-0.07,0.42-0.48c-0.07-0.28-0.28-0.55,0.14-0.76l0,0c0.21-0.14,0.35-0.35,0.55-0.55 c-0.07-0.35,0.14-0.55,0.55-0.55l0,0c0-0.07,0-0.14,0-0.21l-5.33,4.36L217.4,106.73z"></path> <path class="st39" d="M223.49,100.98L223.49,100.98L223.49,100.98C223.42,100.98,223.42,100.98,223.49,100.98z"></path> <path class="st40" d="M164.76,109.36c-0.28,0.42-0.35,0.69-0.42,0.97l0.83-1.32h-0.07C164.97,109.01,164.83,109.22,164.76,109.36z "></path> <path class="st40" d="M164.97,102.71c-0.14,0.48-0.55,0.9-0.83,1.32c-0.35,0.35-0.69,0.62-1.11,0.97 c-0.07,0.07-0.07,0.14-0.14,0.21c-0.62,0.55-0.62,0.62-0.14,1.39c0.07,0.07,0.07,0.14,0.14,0.21c0.14,0.07,0.21,0.21,0.35,0.28 c0.42,0.07,0.83,0.07,1.25,0.14c0,0.14,0,0.35-0.07,0.55c0.21,0,0.35,0,0.48,0c0.07,0.21,0.14,0.48,0.21,0.83 c0.21-0.35,0.35-0.55,0.48-0.76c0.42-0.14,0.07-0.48,0.14-0.76c0.14,0,0.28,0,0.48-0.07l0.07-0.14c-0.07-0.42-0.14-0.76-0.21-1.18 c0-0.07-0.14-0.21-0.07-0.28c0.28-0.48,0.48-1.04,0-1.66c0.9,0.21,1.04,0.62,0.55,1.25c0.14,0.21,0.35,0.42,0.48,0.62l4.29-7.06 l-6.23,3.26C165.11,102.15,165.11,102.43,164.97,102.71z"></path> <path class="st41" d="M234.57,28.19c0.14-0.55,0-0.83-0.48-1.18c-1.87-1.11-3.81-2.22-5.68-3.32l-6.65,11.5l12.19-4.64 C234.16,29.78,234.37,28.95,234.57,28.19z"></path> <path class="st42" d="M182.49,128.47c0.28,0.07,0.55,0.62,0.9,0.14l0,0c-0.21-0.28,0.07-0.97,0.55-1.11 c0.35-0.07,0.76-0.14,1.18-0.14c0.28,0,0.55,0,0.62,0.35c0,0.07,0.14,0.07,0.28,0.14l7.2-13.85l-20.22,7.9l1.73,1.66 c0.07-0.07,0.28,0,0.62,0.07c0.28,0.07,0.55,0.21,0.9,0.28l0,0c0.14,0.42,0.76,0.62,0.55,1.25c0,0.07,0.21,0.21,0.28,0.28 c0.35,0.14,0.69,0.28,0.97,0.42c0.21,0.14,0.42,0.35,0.55,0.55c0.14,0.07,0.21,0.28,0.28,0.35c0.69,0.14,0.83,0.62,0.9,1.18 c0.07,0.21,0.07,0.42,0.14,0.62l1.52,1.45c0.07-0.14,0.07-0.28,0.14-0.42C181.52,128.96,182.08,128.75,182.49,128.47z"></path> <path class="st42" d="M170.72,94.74L170.72,94.74c0.07,0.48-0.14,0.76-0.55,0.97c-0.35,0.21-0.69,0.42-1.04,0.69l2.42,2.22 l1.11-4.57C171.97,94.4,171.34,94.54,170.72,94.74z"></path> <path class="st43" d="M167.74,97.31c-0.07,0.07-0.21,0.21-0.28,0.28c-0.48,0.69-0.83,1.45-0.97,2.35 c-0.07,0.62-0.07,0.62-0.69,0.62l0,0c0,0.14,0,0.35-0.14,0.42c-0.28,0.28-0.42,0.55-0.48,0.9l6.23-3.26l-2.42-2.22 C168.64,96.68,168.23,97.03,167.74,97.31z"></path> <polygon class="st44" points="173,121.89 193.16,113.93 183.67,107.83 "></polygon> <polygon class="st45" points="193.16,113.93 195.93,96.61 183.67,107.83 "></polygon> <polygon class="st46" points="183.67,107.83 195.93,96.61 190.25,89.76 "></polygon> <path class="st47" d="M181.59,88.37c0.14,0.69,0.28,1.45,0,2.15c-0.07,0.28,0,0.55,0,0.83c-0.55,0.07-1.11,0.14-1.59,0.14 c-0.48,0-0.9,0-1.25,0.42c-0.07,0.07-0.28,0.14-0.42,0.21c-0.14,0.07-0.35,0.21-0.48,0.28c-0.21,0.07-0.42,0.21-0.62,0.28 l6.44,15.17l6.58-18.08l-8.73-2.08C181.52,87.89,181.52,88.16,181.59,88.37z"></path> <polygon class="st48" points="190.25,89.76 195.93,96.61 211.03,91.63 "></polygon> <path class="st49" d="M177.3,92.67c-0.35,0.14-0.76,0.35-1.11,0.48c-0.28,0.07-0.48,0.21-0.76,0.28c-0.21,0.07-0.55,0.14-0.69,0 c-0.55-0.28-0.97-0.14-1.39,0.21c-0.28,0.21-0.48,0.35-0.76,0.48l-1.11,4.57l12.19,9.21L177.3,92.67z"></path> <polygon class="st50" points="171.48,98.62 173,121.89 183.67,107.83 "></polygon> <path class="st51" d="M213.24,109.98L213.24,109.98c0.07,0.42,0.35,0.55,0.69,0.42c0.21-0.42,1.11-0.55,1.59-0.21 c0.21,0.14,0.42,0.21,0.69,0.28c0,0.21,0.07,0.48,0,0.76c-0.14,0.76-0.07,0.9,0.76,0.9c0.07,0,0.14,0,0.21,0l0,0 c0.14-0.28,0.28-0.48,0.35-0.76c0.14-0.42,0.07-0.76-0.42-0.97c-0.48-0.21-0.9-0.55-1.04-1.18l0,0c-0.28-0.14-0.42-0.76-0.21-0.97 c0,0,0.14,0.07,0.21,0.14l0.07,0.07c0.21-0.35,0.42-0.69,0.62-1.11c0.07-0.07,0.07-0.14,0.14-0.21c0.14-0.07,0.28-0.21,0.48-0.35 l-0.28-0.62L213.24,109.98z"></path> <path class="st51" d="M210.06,116.91c0.07,0,0.21-0.28,0.28-0.42c0.07-0.55,0.42-1.04,0.83-1.39c0.21-0.21,0.9,0.07,1.11,0.35 c0.07,0.21,0.14,0.42,0.28,0.62s0.28,0.48,0.42,0.69c0.07-0.14,0.07-0.42,0.28-0.55c0.42-0.35,0.21-0.62-0.14-0.9 c-0.14-0.14-0.28-0.28-0.42-0.48c0-0.07,0.07-0.07,0.07-0.14c0.21,0,0.42,0.07,0.62,0.07c0-0.14-0.07-0.28-0.07-0.42l-0.07-0.07 c-0.48-0.35-0.48-0.48-0.21-0.83c0.14,0.14,0.28,0.28,0.48,0.42c0.14,0.07,0.28,0,0.48-0.07c-0.07-0.14-0.07-0.35-0.21-0.42 c-0.48-0.35-0.97-0.76-1.11-1.45c-0.07-0.28-0.07-0.62,0-0.9c0.07-0.21,0.07-0.42,0-0.55l-6.65,6.51l3.39,0.62 C209.43,117.32,209.5,116.91,210.06,116.91z"></path> <polygon class="st51" points="217.12,106.17 217.12,106.17 217.4,106.73 217.4,106.73 "></polygon> <polygon class="st52" points="193.16,113.93 206.04,117.05 195.93,96.61 "></polygon> <path class="st53" d="M191.08,139.9l3.95,1.94c0.07-0.07,0.14-0.14,0.21-0.21c0.21-0.21,0.48-0.28,0.69-0.48l0,0 c0.14-0.14,0.28-0.35,0.35-0.48c0.07-0.14,0-0.42-0.07-0.55c-0.21-0.48-0.42-0.9-0.69-1.45c0.35,0,0.48,0.07,0.76,0.07 c-0.14-0.35-0.28-0.55-0.42-0.83l0,0c-0.21-0.21-0.42-0.21-0.62,0c-0.07,0.07-0.21,0.07-0.35,0.07c0-0.14-0.07-0.28,0-0.35 c0.14-0.21,0.35-0.42,0.48-0.62c0.07-0.07,0.14-0.07,0.21-0.14c0.14-0.28,0.35-0.14,0.42,0c0.14,0.28,0.14,0.55,0.28,0.83 c0.07,0.14,0.14,0.28,0.21,0.35c0.14-0.07,0.21-0.14,0.35-0.21c0.14-0.14,0.28-0.28,0.42-0.42c0.07-0.14,0.07-0.28,0.14-0.42 c-0.9-0.07-0.9-0.07-0.48-0.76c-0.14-0.14-0.28-0.28-0.42-0.42l0,0c-0.07-0.07-0.21-0.07-0.21-0.14c0.14-0.28,0.21-0.62,0.35-0.83 c0.21-0.21,0.42-0.55,0.76-0.21s0.35,0.83,0.35,1.32c-0.14,0.28-0.14,0.48,0.07,0.69c0,0.14,0.14,0.35,0.07,0.42 c-0.28,0.48-0.69,0.9-0.97,1.32l0,0c0,0.14-0.07,0.28-0.07,0.55c0.21-0.21,0.42-0.28,0.48-0.42c0.42-0.69,0.83-1.39,1.25-2.01 c0.28-0.35,0.62-0.62,0.9-0.97c0.07-0.07,0.14-0.21,0.28-0.28l-0.35-0.9c-0.07,0-0.21-0.07-0.28-0.07 c0.07-0.07,0.07-0.21,0.14-0.28l-3.19-8.1L191.08,139.9z"></path> <path class="st54" d="M222.45,101.81c0-0.48,0.35-0.76,0.97-0.83l0,0c-0.14-0.14-0.21-0.28-0.28-0.35 c-0.14-0.14-0.28-0.21-0.42-0.35c0.62-0.55,0.62-0.97-0.21-1.25c-0.42-0.14-0.55-0.28-0.42-0.69c0.14-0.62,0.21-1.32,0.35-2.01 c0.07-0.35,0.42-0.62,0.62-0.9l0,0c0.21-0.69,0.14-1.52,1.04-1.87c0.07-0.21,0.21-0.42,0.28-0.62c0.07-0.14,0.07-0.21,0.14-0.35 c0.35-0.48,0.28-0.55-0.28-0.69c-0.07,0-0.21-0.07-0.35-0.14l-6.86,14.34L222.45,101.81z"></path> <path class="st54" d="M225.78,89L225.78,89c0.07-0.21,0.07-0.35,0.14-0.55c-0.14,0-0.28,0-0.35,0l-0.55,1.18 C225.16,89.34,225.43,89.13,225.78,89z"></path> <path class="st54" d="M224.67,91.49L224.67,91.49c-0.07-0.21-0.14-0.42-0.14-0.62s0.07-0.42,0.14-0.55l-0.69,1.39 C224.26,91.63,224.46,91.56,224.67,91.49z"></path> <polygon class="st54" points="217.12,106.17 217.12,106.17 222.45,101.81 222.45,101.81 "></polygon> <polygon class="st54" points="223.42,100.98 223.42,100.98 223.42,100.98 "></polygon> <path class="st55" d="M217.12,106.17L217.12,106.17l6.86-14.34c-0.07,0-0.07,0-0.14-0.07c0.07,0,0.14-0.07,0.21-0.07l0.69-1.39 c0.07-0.21,0.14-0.48,0.28-0.62l0.55-1.18c-0.55,0-1.11,0.21-1.45-0.35l0,0c-0.42-0.07-0.83-0.14-1.18-0.28 c-0.28-0.07-0.48-0.28-0.62-0.42c0.69-0.07,1.32-0.28,1.87,0.28c0.35,0.28,1.32-0.07,1.45-0.48c0.07-0.07,0-0.21,0-0.35 c0-0.07-0.14-0.14-0.14-0.14c0.07-0.28,0.21-0.55,0.21-0.83c0-0.21-0.21-0.48-0.35-0.69c0,0-0.14,0-0.28,0l-13.99,6.51 L217.12,106.17z"></path> <path class="st55" d="M217.12,106.17L217.12,106.17L217.12,106.17z"></path> <polygon class="st56" points="211.03,91.63 195.93,96.61 217.12,106.17 217.12,106.17 "></polygon> <path class="st56" d="M217.12,106.17L217.12,106.17L217.12,106.17z"></path> <path class="st57" d="M212.14,109.84c-0.35,0.07-0.07,0.9-0.69,0.62c-0.21-0.14-0.35-0.48-0.48-0.69c-0.07,0.48-0.42,0.21-0.69,0 c-0.21,0.07-0.42,0.21-0.48,0.14c-0.55-0.35-1.32-0.42-1.52-1.32c0.76,0.35,1.52,0.62,2.29,0.97c0.21-0.28,0.35-0.62,0.69-0.21 c0.07,0.07,0.14,0,0.21,0c0.42,0,0.83,0,1.25,0.07c0.14,0,0.21,0.35,0.35,0.55l3.88-3.81l0,0l0,0l-21.19-9.56l10.11,20.5 l6.65-6.51C212.62,110.26,212.41,110.05,212.14,109.84z"></path> <polygon class="st57" points="217.12,106.17 217.12,106.17 217.12,106.17 "></polygon> <path class="st58" d="M229.59,62.47c0.14-0.07,0.28,0,0.35-0.07c0.28-0.28,0.48-0.21,0.76,0c0.21-0.07,0.55-0.14,0.55-0.28 c0-0.28,0-0.62-0.21-0.76c-0.28-0.21-0.62-0.35-1.04-0.42c-1.11-0.21-2.22-0.55-3.12-1.39c-0.21-0.21-0.48-0.28-0.69-0.35 c-0.28-0.14-0.62-0.21-0.9-0.42l-3.53,3.67L229.59,62.47L229.59,62.47z"></path> <path class="st59" d="M189.97,130.41c0.07-0.28,0.21-0.55,0.28-0.83c0.07,0.14,0.14,0.35,0.14,0.48c0,0.42,0.07,0.62,0.55,0.62 c0.21,0,0.42,0.28,0.62,0.42l0,0c0.42,0.21,0.55,0.62,0.48,1.04c-0.07,1.52-0.21,3.05-1.04,4.43c-0.42,0.69-0.76,1.39-1.11,2.15 l1.11,1.18l4.85-13.99l-7.83,3.95C188.73,129.93,189.35,130.13,189.97,130.41z"></path> <path class="st60" d="M173,121.89L173,121.89L173,121.89L173,121.89z"></path> <path class="st60" d="M164.28,112.61l0.48,2.29c0.42,0.21,0.83,0.55,1.32,0.76c0.21,0.14,0.42,0.21,0.69,0.28 c0.14,0.07,0.28,0.14,0.35,0.21c0.48,0.76,0.9,1.52,1.39,2.29c0.14,0.14,0.35,0.28,0.48,0.35c0.14,0.14,0.28,0.28,0.48,0.42l0,0 c0.42-0.07,0.62,0.14,0.69,0.55c0.14,0.76,0.97,1.25,1.73,1.18c0.21,0,0.42,0.07,0.62,0.21l-8.24-9.63 C164.28,111.85,164.28,112.27,164.28,112.61z"></path> <path class="st61" d="M164.21,112.89c0,0.07-0.07,0.14-0.14,0.21l0,0c-0.14,0-0.28,0.07-0.48,0.07c0,0.07,0,0.28,0,0.48 c0,0.9,0.07,0.9,0.9,1.18c0.07,0,0.14,0.07,0.28,0.07l-0.48-2.29C164.21,112.75,164.21,112.82,164.21,112.89z"></path> <path class="st62" d="M191.08,139.9L191.08,139.9L191.08,139.9l-1.11-1.18c-0.21,0.42-0.42,0.9-0.62,1.39L191.08,139.9 L191.08,139.9z"></path> <polygon class="st63" points="195.93,125.91 206.04,117.05 193.16,113.93 "></polygon> <path class="st64" d="M180,128.68L180,128.68c0.07,0.07,0.14,0.07,0.14,0.14c-0.28,0.62,0.28,0.9,0.62,1.25 c0.14,0.14,0.21,0.28,0.28,0.42c0.14-0.07,0.35-0.07,0.35-0.14c0.07-0.07,0.07-0.14,0.14-0.21L180,128.68 C180,128.61,180,128.61,180,128.68z"></path> <path class="st64" d="M173,121.89c0.21,0.69,0.55,1.25,1.11,1.8c0.07,0.07,0.14,0.21,0.21,0.35l0,0c0.07,0,0.21,0.07,0.28,0.07 c0.07-0.35,0.07-0.48,0.14-0.55L173,121.89L173,121.89z"></path> <polygon class="st65" points="190.25,89.76 211.03,91.63 198.15,78.33 "></polygon> <path class="st66" d="M206.59,121.34c0.14,0,0.28,0,0.28,0.07c0.28,0.28,0.48,0.62,0.83,1.04c0.07-0.35,0.14-0.62,0.21-0.9 c0-0.14,0.07-0.21,0.07-0.35l0,0c-0.42-0.42-0.07-0.69,0.21-0.97c-0.07-0.07-0.07-0.21-0.14-0.21c-0.35-0.14-0.21-0.42-0.07-0.62 c0.21-0.35,0.42-0.21,0.69-0.14c0.28,0.14,0.55,0.28,0.9,0.48c-0.07,0.21-0.14,0.48-0.28,0.83c0.42-0.14,0.69-0.21,1.04-0.28 c0,0.07,0.07,0.14,0.07,0.21c-0.42,0.21-0.9,0.42-1.32,0.62l-0.07,0.07c-0.55,0.76-1.04,1.45-1.59,2.22c0.14,0,0.21,0,0.28,0 c0.35-0.35,0.69-0.62,1.11-0.97c0.28-0.21,0.55-0.55,0.9-0.69c0.76-0.42,1.52-0.69,2.22-1.11c0.28-0.14,0.48-0.42,0.76-0.69l0,0 c-0.21-0.21-0.42-0.42-0.62-0.62c-0.07,0-0.07-0.07-0.07-0.14c-0.28-0.14-0.48-0.21-0.76-0.48c-0.14-0.21-0.76-0.14-1.18-0.21 c-0.21,0-0.55,0.07-0.62-0.07c-0.14-0.14-0.14-0.48-0.07-0.69v-0.07l-3.39-0.62L206.59,121.34z"></path> <path class="st66" d="M206.94,122.1c-0.07,0.07-0.14,0.07-0.21,0.14l0.14,0.9C207.43,123.07,207.5,122.86,206.94,122.1z"></path> <path class="st67" d="M202.23,128.96c0.42-0.35,0.69-0.76,1.04-1.18c0.21-0.21,0.35-0.42,0.55-0.62s0.42-0.42,0.62-0.62 c0.48-0.42,0.9-0.9,1.39-1.32c0.42-0.28,0.69-0.62,0.76-1.18c-0.14,0-0.21,0-0.28,0l0,0c-0.28,0.42-0.55,0.76-1.04,0.69 c-0.14,0.55-0.42,0.62-1.04,0.48l0,0c0.21,0.48,0,0.83-0.76,1.25c-0.14-0.55-0.14-1.04,0.14-1.45c0.28-0.42,0.07-0.48-0.28-0.55 c-0.21-0.07-0.42-0.07-0.62,0c-0.69,0.14-0.76,0.07-0.83-0.62c0.14,0,0.21,0,0.35,0c0-0.21-0.55-1.04-0.69-1.04 c-0.14-0.07-0.28-0.14-0.35-0.21c-0.07-0.07-0.07-0.28-0.14-0.42c0.14,0,0.28,0,0.42,0.07c0.21,0.07,0.48,0.21,0.62,0.35 c0.14,0.14,0.21,0.42,0.28,0.62l0,0c0.35,0,0.69,0.07,1.18,0.07c0,0.07,0.14,0.28,0.21,0.48c0.14-0.07,0.28-0.14,0.42-0.14l0,0 c0.28-0.21,0.55-0.42,0.9-0.48c0.14-0.07,0.42,0.28,0.62,0.42l0,0c0.35-0.14,0.62-0.21,0.97-0.28c0.07,0,0.14,0,0.21-0.07 l-0.14-0.9c-0.14,0.07-0.28,0.21-0.42,0.28c-0.07-0.48-0.35-0.9,0.14-1.18c0,0,0.07-0.07,0.14-0.07l-0.62-4.29l-10.11,8.86 l6.09,3.74C202.02,129.44,201.95,129.17,202.23,128.96z"></path> <path class="st68" d="M199.12,134.01c0.14-0.28,0.21-0.48,0.69-0.28c0.14-0.28,0.21-0.62,0.35-0.9c0.48-0.83,0.9-1.66,1.39-2.49 c0.07-0.14,0.28-0.21,0.42-0.35l0,0c0.07-0.07,0.07-0.21,0.07-0.28l-6.09-3.74L199.12,134.01z"></path> <path class="st68" d="M199.74,135.12c0.21-0.21,0.21-0.42,0-0.62c-0.14-0.07-0.35-0.07-0.48-0.14l0.35,0.9 C199.67,135.26,199.74,135.19,199.74,135.12z"></path> <path class="st69" d="M189.28,140.04c-0.07,0.14-0.14,0.28-0.21,0.35c-0.14,0.35-0.14,0.76-0.21,1.11 c-0.07,0.28-0.07,0.55-0.14,0.83l2.35-2.49L189.28,140.04z"></path> <path class="st69" d="M191.08,139.9L191.08,139.9L191.08,139.9z"></path> <path class="st70" d="M188.73,142.46c-0.07,0.28-0.07,0.55-0.14,0.83c0,0.21-0.07,0.35-0.07,0.55c-0.07,0.62,0.14,0.83,0.76,0.76 c0.28,0,0.48,0,0.76,0c0.55,0.14,1.04,0,1.52-0.21c0.28-0.14,0.55-0.28,0.76-0.48c0.07-0.07,0.07-0.21,0.14-0.35 c-0.42,0.07-0.76,0.21-1.18,0.28c0-0.48,0.28-0.55,0.62-0.62c0.76-0.14,0.76-0.14,0.48-0.9c0.14-0.07,0.28-0.14,0.42-0.14 c0.21,0,0.35,0.07,0.55,0.14c-0.07,0.21-0.07,0.42-0.14,0.62c-0.07,0.14-0.21,0.21-0.35,0.35c0.07,0.28,0,0.62,0.42,0.69 c0.35-0.42,0.62-0.76,0.97-1.18c0.28-0.28,0.55-0.55,0.83-0.83l-3.95-1.94L188.73,142.46z"></path> <path class="st70" d="M191.08,139.9L191.08,139.9L191.08,139.9z"></path> <polygon class="st70" points="191.08,139.9 191.08,139.9 188.73,142.46 188.73,142.46 "></polygon> <path class="st71" d="M171.48,98.62l-4.29,7.06c0.14,0.14,0.28,0.28,0.42,0.48c0.42-0.07,0.9-0.35,1.39,0.14 c-0.21,0.07-0.35,0.21-0.48,0.21c-0.55,0-0.9,0.35-1.25,0.76c-0.14,0.21-0.28,0.35-0.42,0.48c-0.07,0.07-0.14,0.14-0.14,0.14 c-0.14,0.42-0.55,0.21-0.83,0.28c-0.14,0.35-0.28,0.69-0.69,0.83l-0.83,1.32c-0.07,0.21-0.07,0.48-0.07,0.9c0,0.14,0,0.21,0,0.35 l8.17,9.77h0.07l0,0c0.14,0.14,0.35,0.28,0.35,0.42c0,0.07,0,0.14,0.07,0.21l0,0L171.48,98.62z"></path> <path class="st71" d="M166.36,107l-0.07,0.14c0.07,0,0.07,0,0.14,0C166.36,107.07,166.36,107,166.36,107z"></path> <path class="st72" d="M185.96,127.78c0.07,0,0.07,0,0.14,0c0.35-0.07,0.62-0.21,0.9-0.28c0.07,0.07,0.07,0.07,0.14,0.14 c-0.21,0.21-0.42,0.42-0.62,0.62l0,0c-0.14,0.48-0.35,1.04-0.48,1.52l0,0c0.42,0,0.83,0.07,1.18,0.07c0.28,0,0.62,0,0.9,0 l7.83-3.95l-2.77-11.98L185.96,127.78z"></path> </g> <g> <path class="st0" d="M1.45,182.13H4.6v6.58h0.11c1.74-4.57,5.55-7.18,10.6-6.96v3.43c-6.2-0.27-10.44,4.19-10.44,10.06v14.96H1.45 V182.13z"></path> <path class="st0" d="M56.76,196.16c0,8.05-4.73,14.85-13.27,14.85c-8.54,0-13.27-6.8-13.27-14.85c0-8.05,4.73-14.85,13.27-14.85 C52.02,181.31,56.76,188.11,56.76,196.16z M33.64,196.16c0,5.93,3.32,11.96,9.84,11.96c6.53,0,9.84-6.04,9.84-11.96 s-3.32-11.96-9.84-11.96C36.96,184.19,33.64,190.23,33.64,196.16z"></path> <path class="st0" d="M75.95,171.36h3.43v5.49h-3.43V171.36z M75.95,182.13h3.43v28.06h-3.43V182.13z"></path> <path class="st0" d="M99.99,196.81v-3.15h13.6v3.15H99.99z"></path> <path class="st0" d="M134.09,182.13h3.43v4.84h0.11c1.31-3.37,5-5.66,8.97-5.66c7.89,0,10.28,4.13,10.28,10.82v18.05h-3.43v-17.51 c0-4.79-1.58-8.48-7.12-8.48c-5.49,0-8.65,4.13-8.81,9.63v16.37h-3.43V182.13z"></path> <path class="st0" d="M177.43,182.13h3.43v30.67c0,4.19-1.14,7.78-5.98,7.78c-0.82,0-1.58-0.11-2.39-0.11v-2.83 c0.6,0.05,1.25,0.11,1.85,0.05c2.66,0,3.1-1.74,3.1-4.08V182.13z M177.43,171.36h3.43v5.49h-3.43V171.36z"></path> <path class="st0" d="M203.48,210.19v-5.76h4.57v5.76H203.48z"></path> <path class="st0" d="M250.42,190.94c-0.92-4.19-3.43-6.74-7.94-6.74c-6.53,0-9.84,6.04-9.84,11.96s3.32,11.96,9.84,11.96 c4.19,0,7.72-3.37,8.16-7.99h3.43c-0.92,6.8-5.27,10.88-11.58,10.88c-8.54,0-13.27-6.8-13.27-14.85c0-8.05,4.73-14.85,13.27-14.85 c6.04,0,10.55,3.15,11.37,9.63H250.42z"></path> <path class="st0" d="M298,196.16c0,8.05-4.73,14.85-13.27,14.85s-13.27-6.8-13.27-14.85c0-8.05,4.73-14.85,13.27-14.85 S298,188.11,298,196.16z M274.89,196.16c0,5.93,3.32,11.96,9.84,11.96s9.84-6.04,9.84-11.96s-3.32-11.96-9.84-11.96 S274.89,190.23,274.89,196.16z"></path> <path class="st0" d="M317.14,182.13h3.15v4.73h0.16c1.8-3.43,4.68-5.55,9.19-5.55c3.7,0,7.02,1.8,8.05,5.49 c1.69-3.7,5.22-5.49,8.92-5.49c6.2,0,9.3,3.26,9.3,9.84v19.03h-3.43v-18.87c0-4.62-1.69-7.12-6.63-7.12 c-5.93,0-7.61,4.89-7.61,10.11v15.88h-3.43v-19.03c0-3.81-1.47-6.96-5.87-6.96c-5.87,0-8.38,4.46-8.38,10.33v15.66h-3.43V182.13z"></path> </g> </g> </svg> 