<svg height='100px' width='100px'  fill="#1b8bcf" xmlns="http://www.w3.org/2000/svg" data-name="Layer 1" viewBox="0 0 100 100" x="0px" y="0px"><title>12</title><g data-name="Group"><path data-name="Compound Path" d="M90.7,21.67A11.12,11.12,0,0,0,79.65,11.55H20.35A11.12,11.12,0,0,0,9.3,21.67a2,2,0,0,0-1.94,2v4.16a8.72,8.72,0,0,0,1.89,5.42v44.1A11.12,11.12,0,0,0,20.35,88.45H79.65A11.12,11.12,0,0,0,90.75,77.35V33.25a8.72,8.72,0,0,0,1.89-5.43V23.67A2,2,0,0,0,90.7,21.67Zm-2.06,6.15a4.77,4.77,0,1,1-9.55,0V25.67h9.55ZM61,25.67H75.1v3.66a7,7,0,0,1-14.06,0ZM20.35,15.55H79.65a7.11,7.11,0,0,1,7,6.12H13.32A7.11,7.11,0,0,1,20.35,15.55ZM43,25.67H57v3.66a7,7,0,0,1-14.06,0ZM11.36,27.82V25.67H20.9v2.16a4.77,4.77,0,1,1-9.55,0Zm13.55,0V25.67H39v3.66a7,7,0,0,1-14.06,0ZM57,84.45H43V66.77a7,7,0,0,1,14.06,0Zm22.61,0H61V66.77a11,11,0,0,0-22.06,0V84.45H20.35a7.12,7.12,0,0,1-7.11-7.11V36.1a8.69,8.69,0,0,0,8.83-1.85A11,11,0,0,0,41,35.64a11,11,0,0,0,18.06,0,11,11,0,0,0,18.89-1.39,8.69,8.69,0,0,0,8.83,1.85V77.35A7.12,7.12,0,0,1,79.65,84.45Z"></path><path data-name="Compound Path" d="M32.26,56.65H19.47a2,2,0,0,0-2,2V70.52a2,2,0,0,0,2,2H32.26a2,2,0,0,0,2-2V58.65A2,2,0,0,0,32.26,56.65Zm-2,11.86H21.47V60.65h8.79Z"></path><path data-name="Compound Path" d="M80.53,56.65H67.74a2,2,0,0,0-2,2V70.52a2,2,0,0,0,2,2H80.53a2,2,0,0,0,2-2V58.65A2,2,0,0,0,80.53,56.65Zm-2,11.86H69.74V60.65h8.79Z"></path></g></svg>