<?xml-stylesheet type="text/css" href="../css/main.css" ?>
<svg onclick="window.open('../projects.html#career');" id="Layer_1" height='100px' width='100px'  fill="#000000" xmlns="http://www.w3.org/2000/svg" xmlns:xlink="http://www.w3.org/1999/xlink" version="1.1" x="0px" y="0px" viewBox="0 0 66 66" enable-background="new 0 0 66 66" xml:space="preserve"><g><g>
<path class="st0" d="M45.2,36.5C52.5,21,44.1,7.9,44,7.7c-5.4-7.5-16.8-4-17.8-3.7c-0.7,0.2-6,1.6-8.8,7.3c-3,6.1-1.9,14.5,3,25.2    c-3.2,0.8-6.9,2.6-7.4,7.1c0,0,0,0.1,0,0.1V54c0,0.6,0.4,1,1,1h38c0.6,0,1-0.4,1-1V43.7c0,0,0-0.1,0-0.1    C52.5,39,48.4,37.2,45.2,36.5z M19.1,12.3C21.6,7.2,26.6,6,26.6,6c0,0,0.1,0,0.1,0c0.1,0,10.9-3.6,15.6,2.9    c0.1,0.1,8.1,12.6,0.8,27.2C42.4,36,41.9,36,41.5,36L39,34.3v-2.7c3-2.1,3.9-4.9,4-5c0-0.1,0-0.2,0-0.3    c-0.2-9.4-13.7-14.7-14.3-14.9c-0.6-0.2-1.2,0.1-1.3,0.7c-0.3,1.7-3.7,4.1-5.8,5.3c-0.1,0.1-0.3,0.2-0.3,0.3    c-2.3,3.6-0.8,6.4,1.4,7.8c0.7,2.2,2.5,4,4.3,5.4v3.5L24.5,36c-0.4,0-1.1,0-2,0.2C17.6,26,16.5,17.8,19.1,12.3z M31.6,31.4    c-1.8-0.9-6.2-3.4-7.1-6.5c-0.1-0.5-0.4-0.9-0.8-1.1c-1.2-0.8-2.4-2.3-0.9-4.8c1.1-0.6,4.8-2.9,6.1-5.4    c2.9,1.3,11.8,5.8,12.1,12.5C39.4,30.1,34,32.6,31.6,31.4z M27.8,36.2l4.2,5.2v5.9l-5.9-9.9L27.8,36.2z M28.9,34.4v-2.2    c2.8,1.7,4.2,2.3,8.1,0.5v1.8l-4,4.9L28.9,34.4z M34,41.4l4.2-5.2l1.7,1.1L34,47.2V41.4z M51,53H15v-9.2c0.6-5,7.2-5.7,9.2-5.8    l8,13.4c0,0,0,0,0,0.1c0.4,0.5,1.1,0.6,1.6,0.1c0,0,0.1-0.1,0.1-0.1L41.8,38c2,0.1,8.6,0.8,9.2,5.8V53z"></path></g><g>
<path class="st0" d="M64.7,32.3L61.4,29c-0.4-0.4-1-0.4-1.4,0c-0.4,0.4-0.4,1,0,1.4l1.6,1.6l-7.7,0c-0.6,0-1,0.4-1,1c0,0.6,0.4,1,1,1l7.7,0    L60,35.6c-0.4,0.4-0.4,1,0,1.4c0.4,0.4,1,0.4,1.4,0c0.3-0.3-1.2,1.2,3.3-3.3C65.1,33.3,65.1,32.7,64.7,32.3z"></path></g><g><path class="st0" d="M12.1,32l-7.7,0L6,30.4c0.4-0.4,0.4-1,0-1.4c-0.4-0.4-1-0.4-1.4,0l-3.3,3.3c-0.4,0.4-0.4,1,0,1.4c0,0,0,0,0,0L4.6,37    c0.4,0.4,1,0.4,1.4,0c0.4-0.4,0.4-1,0-1.4L4.4,34l7.7,0c0.6,0,1-0.4,1-1C13.1,32.4,12.7,32,12.1,32z"></path></g><g>
<path class="st0" d="M2,7.6c0.6,0,1-0.4,1-1V4.4l5.5,5.5c0.4,0.4,1,0.4,1.4,0c0.4-0.4,0.4-1,0-1.4L4.4,3h2.2c0.6,0,1-0.4,1-1c0-0.6-0.4-1-1-1    H2C1.5,1,1,1.5,1,2v4.6C1,7.2,1.4,7.6,2,7.6z"></path></g><g>
<path class="st0" d="M65,2c0-0.6-0.5-1-1-1h-4.6c-0.6,0-1,0.4-1,1c0,0.6,0.4,1,1,1h2.2l-5.5,5.5c-0.4,0.4-0.4,1,0,1.4c0.4,0.4,1,0.4,1.4,0    L63,4.4v2.2c0,0.6,0.4,1,1,1c0.6,0,1-0.4,1-1L65,2C65,2,65,2,65,2z"></path></g><g>
<path class="st0" d="M64,58.4c-0.6,0-1,0.4-1,1v2.2l-5.5-5.5c-0.4-0.4-1-0.4-1.4,0c-0.4,0.4-0.4,1,0,1.4l5.5,5.5h-2.2c-0.6,0-1,0.4-1,1    c0,0.6,0.4,1,1,1H64c0.5,0,0.9-0.3,1-1v-4.6C65,58.8,64.6,58.4,64,58.4z"></path></g><g>
<path class="st0" d="M8.5,56.1L3,61.6v-2.2c0-0.6-0.4-1-1-1c-0.6,0-1,0.4-1,1V64c0,0.5,0.5,1,1,1h4.6c0.6,0,1-0.4,1-1c0-0.6-0.4-1-1-1H4.4    l5.5-5.5c0.4-0.4,0.4-1,0-1.4C9.5,55.7,8.8,55.7,8.5,56.1z"></path></g></g></svg>