<?xml-stylesheet type="text/css" href="../css/main.css" ?>
<!-- Generator: Adobe Illustrator 23.0.4, SVG Export Plug-In . SVG Version: 6.00 Build 0)  -->
<svg onclick="window.open('../how-we-work.html#policy');" version="1.1" id="Layer_1" xmlns="http://www.w3.org/2000/svg" xmlns:xlink="http://www.w3.org/1999/xlink" x="0px" y="0px"
	 viewBox="0 0 100 100" style="enable-background:new 0 0 100 100;" xml:space="preserve">
<path class="st0" d="M26.4,69.5c-0.7,0-1.2,0.5-1.2,1.2V77c0,0.7,0.6,1.2,1.2,1.2h49.1c0.7,0,1.2-0.5,1.2-1.2v-6.3c0-0.7-0.6-1.2-1.2-1.2h-0.6
	V52.9h0.6c0.7,0,1.2-0.5,1.2-1.2v-4.3c0-0.4-0.3-0.9-0.7-1.1l-8.4-3.9c-0.2-0.1-0.4-0.1-0.6-0.1h-2.9v-8.4h0.6
	c0.7,0,1.2-0.6,1.2-1.2c0-7.5-6.1-13.6-13.9-14.2v-1.8c0-0.7-0.6-1.2-1.2-1.2s-1.2,0.5-1.2,1.2v1.8c-7.8,0.6-13.9,6.8-13.9,14.3
	c0,0.7,0.6,1.2,1.2,1.2h0.6v8.4h-2.9c-0.2,0-0.4,0-0.6,0.1l-8.4,3.9c-0.4,0.2-0.7,0.6-0.7,1.1v4.3c0,0.7,0.6,1.2,1.2,1.2H27v16.7
	H26.4z M74.2,75.8H27.6v-4h46.6V75.8z M56.6,69.5V55.8h6.2v13.7H56.6z M54.1,55.8v13.7h-6.2V55.8H54.1z M64.9,53.4H37v-1.9l14-2.6
	l14,2.6V53.4z M45.3,55.8v13.7h-6.2V55.8H45.3z M72.4,69.5h-7.1V55.8h0.9c0.7,0,1.2-0.5,1.2-1.2v-1.7h5V69.5z M61.8,42.2h-5.5v-8.4
	h5.5V42.2z M53.7,33.9v8.4h-5.5v-8.4H53.7z M50.9,20.7c6.6,0,12,4.8,12.6,10.8H38.3C38.9,25.5,44.3,20.7,50.9,20.7z M40.1,33.9h5.5
	v8.4h-5.5V33.9z M27.6,48.1l7.4-3.5h31.8l7.4,3.5v2.4h-6.9c0-0.5-0.4-1-1-1.1l-15.2-2.9c-0.2,0-0.3,0-0.5,0l-15.2,2.9
	c-0.6,0.1-1,0.6-1,1.1h-6.9V48.1z M29.5,52.9h5v1.7c0,0.7,0.6,1.2,1.2,1.2h0.9v13.7h-7.1V52.9z"/>
<path class="st0" d="M6.8,95.8h71.4c3.9,0,7.1-3,7.1-6.7V66.4h5.4c2.1,0,3.8-1.6,3.8-3.5V54c0-0.9-0.4-1.7-1-2.4c0.6-0.6,1-1.4,1-2.4v-8.8
	c0-0.9-0.4-1.7-1-2.4c0.6-0.6,1-1.4,1-2.4v-8.8c0-0.9-0.4-1.7-1-2.4c0.6-0.6,1-1.4,1-2.4v-8.8c0-1.9-1.7-3.5-3.8-3.5h-5.4V8.4
	c0-3.7-3.2-6.7-7.1-6.7H6.8c-0.7,0-1.2,0.5-1.2,1.2v91.8C5.6,95.3,6.1,95.8,6.8,95.8z M91.9,26.9v8.8c0,0.7-0.6,1.2-1.3,1.2h-5.4
	V25.8h5.4C91.4,25.8,91.9,26.3,91.9,26.9z M91.9,40.5v8.8c0,0.7-0.6,1.2-1.3,1.2h-5.4V39.3h5.4C91.4,39.3,91.9,39.8,91.9,40.5z
	 M91.9,62.8c0,0.7-0.6,1.2-1.3,1.2h-5.4V52.8h5.4c0.7,0,1.3,0.5,1.3,1.2V62.8z M90.7,12.2c0.7,0,1.3,0.5,1.3,1.2v8.8
	c0,0.7-0.6,1.2-1.3,1.2h-5.4V12.2H90.7z M82.8,8.4v80.7c0,2.4-2.1,4.4-4.6,4.4H18.7V4h59.5C80.7,4,82.8,5.9,82.8,8.4z M8.1,4h8.1
	v89.5H8.1V4z"/>
</svg>
